<?xml version="1.0" encoding="UTF-8"?>
<svg id="Layer_1" data-name="Layer 1" xmlns="http://www.w3.org/2000/svg" viewBox="0 0 36.64 36.97">
  <defs>
    <style>
      .cls-1 {
        fill: #012428;
      }

      .cls-2 {
        fill: #fff;
      }

      .cls-3 {
        fill: #011214;
      }

      .cls-4 {
        fill: #ff8a29;
      }

      .cls-5 {
        fill: #063b5b;
      }

      .cls-6 {
        fill: #d35500;
      }

      .cls-7 {
        fill: #c4c3c2;
      }

      .cls-8 {
        fill: #9e4000;
      }

      .cls-9 {
        fill: #0e8092;
      }

      .cls-10 {
        fill: #0b606e;
      }

      .cls-11 {
        fill: #d4d7c9;
      }

      .cls-12 {
        fill: #d5d8d8;
      }

      .cls-13 {
        fill: #12aac2;
      }
    </style>
  </defs>
  <path class="cls-8" d="m8.44,6.52v-.06h-4.36l2.12,2.32c.31-1.14,1.17-2.03,2.25-2.26Z"/>
  <path class="cls-8" d="m9.01,12.91c-.78,0-1.48-.33-2-.87l.8.87s.07,0,.1,0h1.1Z"/>
  <path class="cls-8" d="m2.25,25.12l.64.7h1.19c-.69,0-1.32-.26-1.83-.7Z"/>
  <path class="cls-8" d="m6.04,18.63l.67.74h1.2c-.71,0-1.36-.28-1.87-.74Z"/>
  <path class="cls-7" d="m36.64,17.69L21.5,1.09c.46.57.74,1.32.74,2.14,0,1.78-1.32,3.23-2.94,3.23h5.15v1.05h-1.77v4.36h1.77v1.05h5.27v1.05h-1.77v4.36h1.77v1.05h-1.77v1.05h-1.77v4.36h1.77v1.05h2.26v1.61h-7.85v2.45l-2.15-2.35-2.14,2.35v-2.45H0l8.7,9.54h27.94v-19.28Z"/>
  <polygon class="cls-8" points="5.03 1.05 4.08 1.05 5.85 2.99 5.85 1.05 5.03 1.05"/>
  <polygon class="cls-3" points="22.36 27.43 30.21 27.43 30.21 25.82 27.95 25.82 22.36 25.82 22.36 27.43"/>
  <polygon class="cls-3" points="4.08 25.82 2.89 25.82 0 25.82 0 27.43 18.07 27.43 18.07 25.82 4.08 25.82"/>
  <path class="cls-12" d="m12.03,7.93c0,1.09-.8,1.96-1.79,1.96-.48,0-.9-.21-1.22-.54v1.75c-.72,0-1.3-.64-1.3-1.42,0-.59.32-1.09.78-1.31-.03-.14-.05-.29-.05-.45v-.32c-.82.27-1.42,1.09-1.42,2.08,0,1.2.89,2.18,1.99,2.18h13.67v-4.36h-10.65v.42Z"/>
  <polygon class="cls-5" points="12.03 7.5 22.68 7.5 23.49 7.5 24.45 7.5 24.45 6.46 19.3 6.46 12.03 6.46 12.03 7.5"/>
  <path class="cls-5" d="m23.49,11.86h-14.48c-1.1,0-1.99-.98-1.99-2.18,0-.98.6-1.81,1.42-2.08v-1.09c-1.08.23-1.94,1.12-2.25,2.26-.08.29-.13.59-.13.91,0,.93.36,1.77.94,2.36.53.54,1.23.87,2,.87h15.44v-1.05h-.96Z"/>
  <path class="cls-1" d="m7.71,9.68c0,.79.58,1.42,1.3,1.42v-1.75c-.25-.26-.43-.6-.52-.98-.46.22-.78.72-.78,1.31Z"/>
  <path class="cls-12" d="m2.09,22.59c0,1.2.89,2.18,1.99,2.18h13.99v-1.31h4.29v1.31h3.82v-4.36H4.08c-1.1,0-1.99.98-1.99,2.18Zm1.99,1.42c-.72,0-1.3-.64-1.3-1.42s.58-1.42,1.3-1.42v2.85Z"/>
  <path class="cls-1" d="m22.79,19.37H4.08c-1.62,0-2.94,1.45-2.94,3.23,0,1.03.44,1.94,1.12,2.53.5.44,1.14.7,1.83.7h13.99v-1.05H4.08c-1.1,0-1.99-.98-1.99-2.18s.89-2.18,1.99-2.18h23.87v-1.05h-5.15Z"/>
  <polygon class="cls-1" points="22.36 25.82 27.95 25.82 27.95 24.77 26.99 24.77 26.18 24.77 22.36 24.77 22.36 25.82"/>
  <path class="cls-3" d="m2.78,22.59c0,.79.58,1.42,1.3,1.42v-2.85c-.72,0-1.3.64-1.3,1.42Z"/>
  <path class="cls-12" d="m19.3,1.05H5.85v4.36h2.6v-2.18h3.58v2.18h7.27c1.1,0,1.99-.98,1.99-2.18s-.89-2.18-1.99-2.18Zm0,3.61V1.8c.72,0,1.3.64,1.3,1.42s-.58,1.43-1.3,1.43Z"/>
  <polygon class="cls-4" points="8.44 5.41 5.85 5.41 5.03 5.41 4.08 5.41 4.08 6.46 8.44 6.46 8.44 5.41"/>
  <path class="cls-4" d="m21.5,1.09l-.25-.27c-.52-.51-1.2-.82-1.95-.82H4.08v1.05h15.22c1.1,0,1.99.98,1.99,2.18s-.89,2.18-1.99,2.18h-7.27v1.05h7.27c1.63,0,2.94-1.45,2.94-3.23,0-.82-.28-1.57-.74-2.14Z"/>
  <path class="cls-4" d="m21.25.82l.25.27c-.08-.1-.16-.19-.25-.27Z"/>
  <path class="cls-6" d="m20.6,3.23c0-.79-.58-1.42-1.3-1.42v2.85c.72,0,1.3-.64,1.3-1.43Z"/>
  <path class="cls-13" d="m8.44,3.23v4.7c0,.15.02.3.05.45.08.38.26.72.52.98.32.33.75.54,1.22.54.99,0,1.79-.88,1.79-1.96V3.23h-3.58Z"/>
  <path class="cls-12" d="m20.77,16.14c0,1.2.89,2.18,1.99,2.18h5.19v-4.36h-5.19c-1.1,0-1.99.98-1.99,2.18Zm1.99,1.42c-.72,0-1.3-.64-1.3-1.42s.58-1.42,1.3-1.42v2.85Z"/>
  <path class="cls-10" d="m19.85,16.14c0,1.78,1.32,3.23,2.94,3.23h6.92v-1.05h-6.96c-1.1,0-1.99-.98-1.99-2.18s.89-2.18,1.99-2.18h6.96v-1.05h-6.92c-1.63,0-2.94,1.45-2.94,3.23Z"/>
  <path class="cls-10" d="m21.46,16.14c0,.79.58,1.42,1.3,1.42v-2.85c-.72,0-1.3.64-1.3,1.42Z"/>
  <path class="cls-9" d="m12.6,19.37h10.2c-1.63,0-2.94-1.44-2.94-3.23h-10.09c0,1.74,1.26,3.16,2.84,3.23Z"/>
  <path class="cls-13" d="m9.76,16.14h10.09c0-1.78,1.32-3.23,2.94-3.23h-10.19c-1.58.06-2.84,1.48-2.84,3.23Z"/>
  <path class="cls-13" d="m9.01,12.91h-1.1s-.07,0-.1,0c-1.58.06-2.84,1.48-2.84,3.22h1.64c0-1.78,1.32-3.23,2.94-3.23h-.54Z"/>
  <path class="cls-13" d="m7.76,16.14h.84c0-1.78,1.32-3.23,2.94-3.23h-.95c-1.58.06-2.84,1.48-2.84,3.23Z"/>
  <path class="cls-9" d="m8.61,16.14h-.84c0,1.74,1.26,3.16,2.84,3.23h.95c-1.63,0-2.94-1.44-2.94-3.23Z"/>
  <path class="cls-9" d="m9.55,19.37c-1.63,0-2.94-1.44-2.94-3.23h-1.64c0,1,.42,1.9,1.07,2.49l-.12-.13.12.13c.51.46,1.16.74,1.87.74h1.64Z"/>
  <path class="cls-2" d="m6.61,16.14h0s1.16,0,1.16,0c0-1.74,1.27-3.17,2.84-3.23h-1.05c-1.63,0-2.94,1.45-2.94,3.23Z"/>
  <path class="cls-11" d="m7.76,16.14h-1.16c0,1.78,1.32,3.23,2.94,3.23h1.05c-1.58-.06-2.84-1.49-2.84-3.23Z"/>
  <path class="cls-2" d="m8.61,16.14h0s1.15,0,1.15,0c0-1.74,1.27-3.17,2.84-3.23h-1.05c-1.63,0-2.94,1.45-2.94,3.23Z"/>
  <path class="cls-11" d="m9.76,16.14h-1.15c0,1.78,1.32,3.23,2.94,3.23h1.05c-1.57-.06-2.84-1.49-2.84-3.23Z"/>
  <polygon class="cls-4" points="22.36 24.77 22.36 23.46 18.07 23.46 18.07 24.77 18.07 25.82 18.07 27.43 18.07 29.88 20.22 27.53 22.36 29.88 22.36 27.43 22.36 25.82 22.36 24.77"/>
</svg>