<?xml version="1.0" encoding="UTF-8"?>
<svg id="Layer_1" data-name="Layer 1" xmlns="http://www.w3.org/2000/svg" viewBox="0 0 39.12 36.69">
  <defs>
    <style>
      .cls-1 {
        fill: #fff;
      }

      .cls-2 {
        fill: #a3aeb2;
      }

      .cls-3 {
        fill: #939598;
      }

      .cls-4 {
        fill: #20b7ea;
      }

      .cls-5 {
        fill: #f95c53;
      }

      .cls-6 {
        fill: #0ac6b3;
      }

      .cls-7 {
        fill: #a7c6d1;
      }

      .cls-8 {
        fill: #a9cc64;
      }

      .cls-9 {
        fill: #00a79d;
      }

      .cls-10 {
        fill: #838687;
      }

      .cls-11 {
        fill: #c9b528;
      }

      .cls-12 {
        fill: #96bf55;
      }

      .cls-13 {
        fill: #d1d3d4;
      }

      .cls-14 {
        fill: #e2e6e8;
      }

      .cls-15 {
        fill: #ef3559;
      }

      .cls-16 {
        fill: #ea312a;
      }

      .cls-17 {
        fill: #6f7272;
      }

      .cls-18 {
        fill: #f9ed32;
      }

      .cls-19 {
        fill: #d2d8db;
      }

      .cls-20 {
        fill: #33c9f2;
      }

      .cls-21 {
        fill: #97b6c4;
      }
    </style>
  </defs>
  <g id="_4" data-name="4">
    <g>
      <path class="cls-9" d="m6.13,10.79L.01,34.29c-.05.18.03.37.16.41h.03c.14.06.28-.05.33-.23l.07-.27,4.97,1.78-.07.27c-.05.18.03.37.17.42h0c.14.05.29-.06.34-.24l6.11-23.5c.18-.69-.16-1.17-.69-1.36l-4.09-1.47c-.52-.19-1.04-.02-1.22.67Z"/>
      <path class="cls-19" d="m7.46,11.12c-.43-.15-.9.18-1.05.75L.6,34.21l2.46.88,6.07-23.37-1.68-.6Z"/>
      <path class="cls-14" d="m3.06,35.08l2.52.9,5.81-22.33c.15-.57-.08-1.16-.51-1.31l-1.74-.62-6.07,23.37Z"/>
      <path class="cls-2" d="m7.12,22.9s1.33-7.4,2.67-10.46c-.35,1.91-.38,2.81-2.67,10.46Z"/>
      <polygon class="cls-16" points="8.46 17.45 10.4 18.14 10.26 16.71 11.12 15.65 9.11 14.93 8.46 17.45"/>
    </g>
    <g>
      <rect class="cls-21" x="21.38" y="1.82" width="2.94" height="34.86"/>
      <rect class="cls-7" x="18.98" y="1.82" width="2.39" height="34.86"/>
      <rect class="cls-6" x="18.98" y="6.53" width="5.34" height="1.33"/>
      <rect class="cls-6" x="18.98" y="8.47" width="5.34" height="1.33"/>
    </g>
    <g>
      <rect class="cls-11" x="15.19" y="5.07" width="3.71" height="31.62"/>
      <rect class="cls-18" x="12.17" y="5.07" width="3.02" height="31.62"/>
      <rect class="cls-5" x="12.17" y="12.47" width="6.73" height="1.21"/>
      <rect class="cls-5" x="12.17" y="14.22" width="6.73" height="1.21"/>
    </g>
    <g>
      <rect class="cls-12" x="28.29" width="4.67" height="36.69"/>
      <rect class="cls-8" x="24.5" width="3.79" height="36.69"/>
      <rect class="cls-15" x="24.5" y="8.58" width="8.46" height="1.4"/>
      <rect class="cls-15" x="24.5" y="10.62" width="8.46" height="1.4"/>
      <rect class="cls-15" x="24.5" y="29.35" width="8.46" height="1.4"/>
      <rect class="cls-15" x="24.5" y="31.39" width="8.46" height="1.4"/>
    </g>
    <g>
      <rect class="cls-17" x="35.69" y="4.96" width="3.43" height="31.73"/>
      <rect class="cls-10" x="32.9" y="4.96" width="2.79" height="31.73"/>
      <rect class="cls-1" x="32.9" y="12.38" width="6.21" height="1.21"/>
      <rect class="cls-1" x="32.9" y="14.14" width="6.21" height="1.21"/>
      <rect class="cls-1" x="32.9" y="30.34" width="6.21" height="1.21"/>
      <rect class="cls-1" x="32.9" y="32.1" width="6.21" height="1.21"/>
    </g>
    <g>
      <g>
        <path class="cls-1" d="m18.19,15.89v18.61c0,1.2.71,2.18,1.58,2.18h9.23c.87,0,1.58-.98,1.58-2.18V15.89c0-1.2-.71-2.18-1.58-2.18h-9.23c-.87,0-1.58.98-1.58,2.18Z"/>
        <polygon class="cls-4" points="29.09 15.78 19.68 15.78 19.68 34.84 29.09 20.7 29.09 15.78"/>
        <polygon class="cls-20" points="29.09 34.98 29.09 20.7 19.68 34.84 19.68 34.98 29.09 34.98"/>
      </g>
      <path class="cls-13" d="m24.39,14.09c.34,0,.61.32.61.71s-.27.71-.61.71-.61-.32-.61-.71.27-.71.61-.71Z"/>
      <ellipse class="cls-3" cx="24.39" cy="35.72" rx=".57" ry=".67"/>
    </g>
  </g>
</svg>