<?xml version="1.0" encoding="UTF-8"?>
<svg id="Layer_1" data-name="Layer 1" xmlns="http://www.w3.org/2000/svg" xmlns:xlink="http://www.w3.org/1999/xlink" viewBox="0 0 43.12 50.06">
  <defs>
    <style>
      .cls-1 {
        fill: #00354c;
      }

      .cls-2 {
        fill: url(#linear-gradient-2);
      }

      .cls-3 {
        fill: url(#radial-gradient-7);
      }

      .cls-4 {
        fill: url(#radial-gradient-10);
      }

      .cls-5 {
        fill: #ee8031;
      }

      .cls-6 {
        fill: url(#linear-gradient-17);
      }

      .cls-7 {
        fill: #c0bfc6;
      }

      .cls-8 {
        fill: #ddddd7;
      }

      .cls-9 {
        fill: #31393a;
      }

      .cls-10 {
        fill: #5e5f61;
      }

      .cls-11 {
        fill: url(#linear-gradient-15);
      }

      .cls-12 {
        fill: url(#linear-gradient-18);
      }

      .cls-13 {
        fill: url(#linear-gradient-28);
      }

      .cls-14 {
        fill: url(#linear-gradient-14);
      }

      .cls-15 {
        fill: url(#radial-gradient-8);
      }

      .cls-16 {
        fill: url(#linear-gradient-20);
      }

      .cls-17 {
        fill: url(#linear-gradient-6);
      }

      .cls-18 {
        fill: url(#radial-gradient-5);
      }

      .cls-19 {
        fill: url(#radial-gradient-4);
      }

      .cls-20 {
        fill: url(#linear-gradient-11);
      }

      .cls-21 {
        fill: url(#radial-gradient-6);
      }

      .cls-22 {
        fill: #d7d8da;
      }

      .cls-23 {
        fill: url(#linear-gradient-10);
      }

      .cls-24 {
        fill: url(#radial-gradient);
      }

      .cls-25 {
        fill: #bd4d2e;
      }

      .cls-26 {
        fill: #3c4238;
      }

      .cls-27 {
        fill: url(#linear-gradient-16);
      }

      .cls-28 {
        fill: url(#linear-gradient-21);
      }

      .cls-29 {
        fill: url(#linear-gradient-25);
      }

      .cls-30 {
        fill: url(#linear-gradient-5);
      }

      .cls-31 {
        fill: url(#radial-gradient-2);
      }

      .cls-32 {
        fill: #71231e;
      }

      .cls-33 {
        fill: url(#radial-gradient-3);
      }

      .cls-34 {
        fill: url(#linear-gradient-7);
      }

      .cls-35 {
        fill: url(#linear-gradient-24);
      }

      .cls-36 {
        fill: url(#linear-gradient-9);
      }

      .cls-37 {
        fill: url(#linear-gradient-22);
      }

      .cls-38 {
        fill: url(#linear-gradient-3);
      }

      .cls-39 {
        fill: url(#linear-gradient);
      }

      .cls-40 {
        fill: url(#linear-gradient-27);
      }

      .cls-41 {
        fill: #eeedec;
      }

      .cls-42 {
        fill: url(#linear-gradient-23);
      }

      .cls-43 {
        fill: url(#linear-gradient-19);
      }

      .cls-44 {
        fill: #231f20;
      }

      .cls-45 {
        fill: url(#linear-gradient-4);
      }

      .cls-46 {
        fill: url(#radial-gradient-11);
      }

      .cls-47 {
        fill: url(#radial-gradient-9);
      }

      .cls-48 {
        fill: url(#linear-gradient-8);
      }

      .cls-49 {
        fill: url(#linear-gradient-12);
      }

      .cls-50 {
        fill: url(#linear-gradient-13);
      }

      .cls-51 {
        fill: url(#linear-gradient-26);
      }
    </style>
    <radialGradient id="radial-gradient" cx="634.95" cy="1908.07" fx="634.95" fy="1908.07" r="65.01" gradientTransform="translate(-187.49 -33.17) scale(.33 .04)" gradientUnits="userSpaceOnUse">
      <stop offset="0" stop-color="#c5c8cb"/>
      <stop offset=".41" stop-color="#dee0e1"/>
      <stop offset="1" stop-color="#fff"/>
    </radialGradient>
    <radialGradient id="radial-gradient-2" cx="-2037.3" cy="978.38" fx="-2037.3" fy="978.38" r="215.9" gradientTransform="translate(58.29 -88.99) rotate(-44.49) scale(.05) skewX(1.03)" gradientUnits="userSpaceOnUse">
      <stop offset="0" stop-color="#a1a4b2"/>
      <stop offset=".3" stop-color="#c9cad2"/>
      <stop offset=".58" stop-color="#e6e7ea"/>
      <stop offset=".83" stop-color="#f8f8f9"/>
      <stop offset="1" stop-color="#fff"/>
    </radialGradient>
    <radialGradient id="radial-gradient-3" cx="-2037.32" cy="978.45" fx="-2037.32" fy="978.45" r="216.02" xlink:href="#radial-gradient-2"/>
    <radialGradient id="radial-gradient-4" cx="-2037.31" cy="978.46" fx="-2037.31" fy="978.46" r="216.01" xlink:href="#radial-gradient-2"/>
    <radialGradient id="radial-gradient-5" cx="-2037.32" cy="978.46" fx="-2037.32" fy="978.46" r="216.04" xlink:href="#radial-gradient-2"/>
    <linearGradient id="linear-gradient" x1="3518.57" y1="4069.71" x2="3678.51" y2="4069.71" gradientTransform="translate(-225.13 -261.5) scale(.07)" gradientUnits="userSpaceOnUse">
      <stop offset="0" stop-color="#f4cc12"/>
      <stop offset=".88" stop-color="#f4cc12"/>
    </linearGradient>
    <linearGradient id="linear-gradient-2" x1="3566.22" y1="4105" x2="3726.14" y2="4105" gradientTransform="translate(-225.13 -260.86) scale(.07)" xlink:href="#linear-gradient"/>
    <linearGradient id="linear-gradient-3" x1="1291.12" y1="665.48" x2="1422.07" y2="665.48" gradientTransform="translate(-238.9 -100.88) scale(.19)" gradientUnits="userSpaceOnUse">
      <stop offset="0" stop-color="#f3e8df"/>
      <stop offset="1" stop-color="#a7a4a5"/>
    </linearGradient>
    <radialGradient id="radial-gradient-6" cx="-362.33" cy="740.08" fx="-362.33" fy="740.08" r="233.93" gradientTransform="translate(-35.08 -3.15) rotate(-90) scale(.08)" gradientUnits="userSpaceOnUse">
      <stop offset="0" stop-color="#f3e8da"/>
      <stop offset=".57" stop-color="#f6e9d9"/>
      <stop offset="1" stop-color="#ffecd9"/>
    </radialGradient>
    <linearGradient id="linear-gradient-4" x1="1292.87" y1="662.75" x2="1423.82" y2="662.75" gradientTransform="translate(-239.66 -99.71) scale(.19)" xlink:href="#linear-gradient-3"/>
    <radialGradient id="radial-gradient-7" cx="-362.32" cy="740.08" fx="-362.32" fy="740.08" r="233.93" gradientTransform="translate(-35.51 -2.5) rotate(-90) scale(.08)" xlink:href="#radial-gradient-6"/>
    <linearGradient id="linear-gradient-5" x1="1294.45" y1="664.91" x2="1425.41" y2="664.91" gradientTransform="translate(-240.36 -100.64) scale(.19)" xlink:href="#linear-gradient-3"/>
    <radialGradient id="radial-gradient-8" cx="-362.31" cy="740.08" fx="-362.31" fy="740.08" r="233.92" gradientTransform="translate(-35.9 -2.8) rotate(-90) scale(.08)" xlink:href="#radial-gradient-6"/>
    <linearGradient id="linear-gradient-6" x1="1296.03" y1="664.91" x2="1426.98" y2="664.91" gradientTransform="translate(-241.04 -100.64) scale(.19)" xlink:href="#linear-gradient-3"/>
    <radialGradient id="radial-gradient-9" cx="-362.31" cy="740.09" fx="-362.31" fy="740.09" r="233.92" gradientTransform="translate(-36.3 -2.8) rotate(-90) scale(.08)" xlink:href="#radial-gradient-6"/>
    <linearGradient id="linear-gradient-7" x1="1297.92" y1="664.91" x2="1428.88" y2="664.91" gradientTransform="translate(-241.87 -100.64) scale(.19)" xlink:href="#linear-gradient-3"/>
    <radialGradient id="radial-gradient-10" cx="479.66" cy="918.11" fx="479.66" fy="918.11" r="303.85" gradientTransform="translate(-50.45 -70.3) scale(.11)" gradientUnits="userSpaceOnUse">
      <stop offset="0" stop-color="#bb282e"/>
      <stop offset="1" stop-color="#a22224"/>
    </radialGradient>
    <linearGradient id="linear-gradient-8" x1="1303.38" y1="581.49" x2="1310.98" y2="581.49" gradientTransform="translate(-242.25 -100.6) scale(.19)" gradientUnits="userSpaceOnUse">
      <stop offset="0" stop-color="#cbc3bd"/>
      <stop offset="1" stop-color="#cfcac3"/>
    </linearGradient>
    <linearGradient id="linear-gradient-9" x1="1300.49" y1="582.25" x2="1301.22" y2="585.43" gradientTransform="translate(-242.25 -100.6) scale(.19)" gradientUnits="userSpaceOnUse">
      <stop offset="0" stop-color="#cdc5be"/>
      <stop offset=".52" stop-color="#e9e3d9"/>
      <stop offset="1" stop-color="#83807d"/>
    </linearGradient>
    <linearGradient id="linear-gradient-10" y1="567.78" y2="567.78" gradientTransform="translate(-242.25 -94.74) scale(.19)" xlink:href="#linear-gradient-8"/>
    <linearGradient id="linear-gradient-11" x1="1300.49" y1="568.53" x2="1301.21" y2="571.71" gradientTransform="translate(-242.25 -94.74) scale(.19)" xlink:href="#linear-gradient-9"/>
    <linearGradient id="linear-gradient-12" y1="554.03" y2="554.03" gradientTransform="translate(-242.25 -88.88) scale(.19)" xlink:href="#linear-gradient-8"/>
    <linearGradient id="linear-gradient-13" x1="1300.49" y1="554.79" x2="1301.22" y2="557.97" gradientTransform="translate(-242.25 -88.88) scale(.19)" xlink:href="#linear-gradient-9"/>
    <linearGradient id="linear-gradient-14" y1="540.31" y2="540.31" gradientTransform="translate(-242.25 -83.02) scale(.19)" xlink:href="#linear-gradient-8"/>
    <linearGradient id="linear-gradient-15" x1="1300.49" y1="541.07" x2="1301.21" y2="544.25" gradientTransform="translate(-242.25 -83.02) scale(.19)" xlink:href="#linear-gradient-9"/>
    <linearGradient id="linear-gradient-16" y1="526.58" y2="526.58" gradientTransform="translate(-242.25 -77.16) scale(.19)" xlink:href="#linear-gradient-8"/>
    <linearGradient id="linear-gradient-17" x1="1300.49" y1="527.34" x2="1301.22" y2="530.52" gradientTransform="translate(-242.25 -77.16) scale(.19)" xlink:href="#linear-gradient-9"/>
    <linearGradient id="linear-gradient-18" y1="512.85" y2="512.85" gradientTransform="translate(-242.25 -71.3) scale(.19)" xlink:href="#linear-gradient-8"/>
    <linearGradient id="linear-gradient-19" x1="1300.49" y1="513.61" x2="1301.22" y2="516.79" gradientTransform="translate(-242.25 -71.3) scale(.19)" xlink:href="#linear-gradient-9"/>
    <linearGradient id="linear-gradient-20" y1="499.13" y2="499.13" gradientTransform="translate(-242.25 -65.44) scale(.19)" xlink:href="#linear-gradient-8"/>
    <linearGradient id="linear-gradient-21" x1="1300.49" y1="499.88" x2="1301.22" y2="503.06" gradientTransform="translate(-242.25 -65.44) scale(.19)" xlink:href="#linear-gradient-9"/>
    <linearGradient id="linear-gradient-22" y1="485.4" y2="485.4" gradientTransform="translate(-242.25 -59.58) scale(.19)" xlink:href="#linear-gradient-8"/>
    <linearGradient id="linear-gradient-23" x1="1300.49" y1="486.16" x2="1301.21" y2="489.34" gradientTransform="translate(-242.25 -59.58) scale(.19)" xlink:href="#linear-gradient-9"/>
    <linearGradient id="linear-gradient-24" y1="471.67" y2="471.67" gradientTransform="translate(-242.25 -53.72) scale(.19)" xlink:href="#linear-gradient-8"/>
    <linearGradient id="linear-gradient-25" x1="1300.49" y1="472.43" x2="1301.21" y2="475.61" gradientTransform="translate(-242.25 -53.72) scale(.19)" xlink:href="#linear-gradient-9"/>
    <linearGradient id="linear-gradient-26" y1="457.93" y2="457.93" gradientTransform="translate(-242.25 -47.86) scale(.19)" xlink:href="#linear-gradient-8"/>
    <linearGradient id="linear-gradient-27" x1="1300.49" y1="458.69" x2="1301.22" y2="461.87" gradientTransform="translate(-242.25 -47.86) scale(.19)" xlink:href="#linear-gradient-9"/>
    <radialGradient id="radial-gradient-11" cx="635.75" cy="968.19" fx="635.75" fy="968.19" r="171.27" gradientTransform="translate(-46.9 -79.57) scale(.11)" gradientUnits="userSpaceOnUse">
      <stop offset="0" stop-color="#9d2d33"/>
      <stop offset=".82" stop-color="#812326"/>
      <stop offset="1" stop-color="#7b2123"/>
    </radialGradient>
    <linearGradient id="linear-gradient-28" x1="977.8" y1="1242.16" x2="998.98" y2="1057.15" gradientTransform="translate(-167.11 -197.24) scale(.19)" gradientUnits="userSpaceOnUse">
      <stop offset="0" stop-color="#fffdf3"/>
      <stop offset=".96" stop-color="#eeeff0"/>
      <stop offset="1" stop-color="#eeeff0"/>
    </linearGradient>
  </defs>
  <path class="cls-24" d="m42.78,47.31c0,1.52-9.58,2.75-21.39,2.75S0,48.83,0,47.31s9.58-2.75,21.39-2.75,21.39,1.23,21.39,2.75Z"/>
  <g>
    <g>
      <g>
        <polygon class="cls-22" points="27.24 4.12 7.97 2.33 5.37 29.33 24.89 31.15 27.5 4.15 27.24 4.12"/>
        <polygon class="cls-41" points="24.66 30.87 5.65 29.1 8.21 2.6 27.22 4.37 24.66 30.87"/>
      </g>
      <g>
        <polygon class="cls-22" points="25.63 3.24 6.27 3.24 6.27 30.36 25.88 30.36 25.88 3.24 25.63 3.24"/>
        <rect class="cls-41" x="6.53" y="3.5" width="19.09" height="26.61"/>
      </g>
      <g>
        <polygon class="cls-22" points="24.67 3.91 5.32 3.91 5.32 31.03 24.93 31.03 24.93 3.91 24.67 3.91"/>
        <rect class="cls-41" x="5.58" y="4.17" width="19.09" height="26.61"/>
      </g>
      <g>
        <path class="cls-10" d="m22.1.44c-.21-.16-.49-.22-.83-.15-.03,0-.88.19-.88,1.11,0,0,.08.94.16,1.85h.06c-.08-.93-.17-1.91-.17-1.91,0-.82.76-.99.79-.99.31-.06.56-.01.74.13.34.27.37.79.37.81l.13,1.96h.16l-.13-1.92s-.03-.59-.41-.89Z"/>
        <path class="cls-10" d="m22.02,1.65s-.08.02-.11.05c-.03.03-.04.07-.04.11l.09,1.43h.16l-.09-1.38s0-.03.01-.04c0,0,.02-.02.04-.02.03,0,.05.02.05.05l.09,1.39h.06l-.09-1.45c0-.09-.08-.15-.17-.15Z"/>
        <path class="cls-10" d="m19.81,2.11s.02-.05.05-.06c.01,0,.03,0,.04.01,0,0,.01.02.02.03l.1,1.14h.06c-.06-.7-.1-1.2-.1-1.2,0-.04-.02-.07-.05-.1-.03-.03-.08-.05-.13-.05-.09,0-.15.08-.15.17l.1,1.18h.16l-.1-1.13Z"/>
        <path class="cls-10" d="m20.29,1.39h0c0-.99.95-1.2.96-1.2.38-.07.68,0,.92.18.42.33.45.95.45.96l.13,1.92h.06l-.13-1.98s-.03-.68-.49-1.04c-.26-.21-.6-.27-1-.2-.01,0-1.05.22-1.05,1.31h0s.17,1.91.17,1.91h.16l-.17-1.85Z"/>
        <path class="cls-10" d="m20.36,7.22h0c.01.06.08.34.33.58.25.25.6.37,1.02.37,0,0,.52.02.86-.3.21-.2.32-.49.32-.86l-.25-3.76h-.16l.25,3.72c0,.33-.1.6-.29.77-.31.29-.78.27-.78.27-.4,0-.72-.11-.95-.34-.23-.23-.29-.5-.3-.52,0,0-.21-2.39-.34-3.9h-.06l.35,3.97Z"/>
        <path class="cls-10" d="m20.09,7.2s.24,1.13,1.55,1.13c0,0,.59.03,1.01-.36.26-.24.39-.58.39-1.01l-.25-3.71h-.06l.25,3.76c0,.4-.12.72-.35.94-.38.36-.92.33-.94.33-1.22,0-1.44-1-1.45-1.04l-.35-3.99h-.16l.34,3.95h0Z"/>
        <path class="cls-31" d="m19.91,2.1s0-.02-.02-.03c-.01-.01-.03-.02-.04-.01-.03,0-.05.03-.05.06l.1,1.13h.1l-.1-1.14Z"/>
        <path class="cls-33" d="m22.16.36c-.23-.18-.54-.24-.92-.18,0,0-.96.21-.96,1.2h0s.17,1.85.17,1.85h.1c-.08-.91-.16-1.85-.16-1.85,0-.92.84-1.1.88-1.11.34-.06.62-.01.83.15.38.3.41.87.41.89l.13,1.92h.1l-.13-1.92s-.02-.63-.45-.96Z"/>
        <path class="cls-19" d="m22.08,1.81s-.03,0-.04.02c0,0-.01.02-.01.04l.09,1.38h.1l-.09-1.39s-.03-.05-.05-.05Z"/>
        <path class="cls-18" d="m22.89,7.01c0,.37-.11.66-.32.86-.35.33-.86.3-.86.3-.42,0-.76-.13-1.02-.37-.25-.25-.32-.53-.33-.58h0s-.35-3.98-.35-3.98h-.1l.35,3.99s.22,1.04,1.45,1.04c.01,0,.55.03.94-.33.24-.22.35-.53.35-.94l-.25-3.76h-.1l.25,3.76Z"/>
      </g>
      <rect class="cls-39" x="8.76" y="8.47" width="10.64" height="1.33"/>
      <rect class="cls-2" x="11.93" y="11.45" width="10.63" height="1.33"/>
    </g>
    <g>
      <g>
        <path class="cls-38" d="m5.19,7.76c0-.7.58-1.26,1.29-1.26h32.25c.71,0,1.29.56,1.29,1.26v34.28c0,.7-.58,1.26-1.29,1.26H6.48c-.71,0-1.29-.57-1.29-1.26V7.76Z"/>
        <path class="cls-21" d="m4.97,7.57c0-.7.58-1.26,1.29-1.26h32.25c.71,0,1.29.56,1.29,1.26v34.28c0,.7-.58,1.26-1.29,1.26H6.26c-.71,0-1.29-.56-1.29-1.26V7.57Z"/>
      </g>
      <path class="cls-9" d="m43.12,37.27c0,.62-.36,1.13-.81,1.13h-4.15c-.44,0-.81-.51-.81-1.13v-4.65c0-.62.36-1.13.81-1.13h4.15c.44,0,.81.51.81,1.13v4.65Z"/>
      <path class="cls-9" d="m43.12,37.49c0,.62-.36,1.13-.81,1.13h-4.15c-.44,0-.81-.51-.81-1.13v-4.64c0-.62.36-1.13.81-1.13h4.15c.44,0,.81.51.81,1.13v4.64Z"/>
      <path class="cls-7" d="m40.11,33.08c.21-.05.48-.08.76-.08.49,0,.83.16,1.07.47.25.32.41.81.41,1.5s-.16,1.27-.41,1.62c-.26.37-.68.56-1.19.56-.28,0-.49-.03-.65-.06v-4.02Zm.48,3.46c.07.02.17.02.27.02.63,0,.99-.53.99-1.56,0-.9-.33-1.42-.93-1.42-.15,0-.26.02-.33.04v2.92Z"/>
      <g>
        <path class="cls-45" d="m4.76,8.41c0-.7.58-1.26,1.29-1.26h32.25c.71,0,1.29.56,1.29,1.26v34.28c0,.7-.58,1.26-1.29,1.26H6.04c-.71,0-1.29-.57-1.29-1.26V8.41Z"/>
        <path class="cls-3" d="m4.54,8.22c0-.7.58-1.26,1.29-1.26h32.24c.71,0,1.29.56,1.29,1.26v34.28c0,.7-.58,1.26-1.29,1.26H5.83c-.71,0-1.29-.56-1.29-1.26V8.22Z"/>
      </g>
      <path class="cls-32" d="m43.12,30.51c0,.62-.36,1.13-.81,1.13h-4.15c-.44,0-.81-.51-.81-1.13v-4.64c0-.62.36-1.13.81-1.13h4.15c.44,0,.81.51.81,1.13v4.64Z"/>
      <path class="cls-7" d="m41.91,30.27c-.11.09-.36.19-.68.19-.84,0-1.34-.82-1.34-2.06,0-1.35.6-2.16,1.41-2.16.32,0,.54.1.64.18l-.11.59c-.12-.08-.3-.16-.52-.16-.54,0-.92.52-.92,1.5,0,.9.34,1.47.92,1.47.2,0,.4-.06.52-.15l.08.59Z"/>
      <g>
        <path class="cls-30" d="m4.36,7.89c0-.7.58-1.26,1.29-1.26h32.25c.71,0,1.29.57,1.29,1.26v34.28c0,.7-.57,1.26-1.29,1.26H5.65c-.71,0-1.29-.56-1.29-1.26V7.89Z"/>
        <path class="cls-15" d="m4.15,7.91c0-.7.58-1.26,1.29-1.26h32.25c.71,0,1.29.57,1.29,1.26v34.28c0,.7-.58,1.27-1.29,1.27H5.44c-.71,0-1.29-.57-1.29-1.26V7.91Z"/>
      </g>
      <path class="cls-25" d="m43.12,23.75c0,.62-.36,1.13-.81,1.13h-4.15c-.44,0-.81-.51-.81-1.13v-4.65c0-.62.36-1.13.81-1.13h4.15c.44,0,.81.51.81,1.13v4.65Z"/>
      <path class="cls-7" d="m40.16,19.46c.15-.05.43-.09.7-.09.35,0,.57.07.75.26.16.15.27.42.27.76,0,.38-.15.72-.44.88h0c.28.12.53.46.53,1.02,0,.36-.1.65-.25.84-.19.25-.5.38-.98.38-.26,0-.47-.03-.59-.06v-4.02Zm.48,1.61h.25c.33,0,.52-.24.52-.59,0-.38-.19-.56-.49-.56-.14,0-.22.01-.27.03v1.11Zm0,1.88c.06.02.14.02.25.02.31,0,.58-.18.58-.68,0-.47-.26-.67-.6-.67h-.24v1.33Z"/>
      <g>
        <path class="cls-17" d="m3.97,7.89c0-.7.58-1.26,1.29-1.26h32.25c.71,0,1.29.57,1.29,1.26v34.28c0,.7-.58,1.26-1.29,1.26H5.26c-.71,0-1.29-.56-1.29-1.26V7.89Z"/>
        <path class="cls-47" d="m3.76,7.91c0-.7.58-1.26,1.29-1.26h32.24c.71,0,1.29.57,1.29,1.26v34.28c0,.7-.58,1.27-1.29,1.27H5.05c-.71,0-1.29-.57-1.29-1.26V7.91Z"/>
      </g>
      <path class="cls-5" d="m43.12,17.08c0,.62-.36,1.13-.81,1.13h-4.15c-.44,0-.81-.51-.81-1.13v-4.65c0-.62.36-1.13.81-1.13h4.15c.44,0,.81.51.81,1.13v4.65Z"/>
      <path class="cls-7" d="m40.48,15.34l-.23,1.16h-.5l.84-4.09h.61l.86,4.09h-.52l-.24-1.16h-.84Zm.75-.56l-.21-1.01c-.05-.25-.09-.53-.13-.76h0c-.04.24-.08.52-.13.76l-.2,1.01h.68Z"/>
      <path class="cls-34" d="m3.5,7.89c0-.7.58-1.26,1.29-1.26h32.24c.71,0,1.29.57,1.29,1.26v34.28c0,.7-.58,1.26-1.29,1.26H4.79c-.71,0-1.29-.56-1.29-1.26V7.89Z"/>
      <path class="cls-4" d="m3.29,7.91c0-.7.58-1.26,1.29-1.26h32.25c.71,0,1.29.57,1.29,1.26v34.28c0,.7-.58,1.27-1.29,1.27H4.57c-.71,0-1.29-.57-1.29-1.26V7.91Z"/>
      <path class="cls-48" d="m5.59,9.31c0,.39-.32.7-.72.7s-.72-.32-.72-.7.32-.71.72-.71.72.32.72.71Z"/>
      <path class="cls-1" d="m5.59,9.31c0-.08-.01-.16-.04-.23-.46.07-.8.38-.8.76,0,.06,0,.11.02.17.03,0,.07,0,.1,0,.4,0,.72-.32.72-.7Z"/>
      <path class="cls-44" d="m5.35,9.2s-.84.09-1.66.26h0c-.49.1-.89.21-1.18.32-.29.11-.67.29-.69.61-.02.2.11.38.37.54.21.13.53.25.98.38h0s.14,0,.14,0v-.45h-.02c-.76-.22-.94-.37-.99-.42.03-.04.14-.12.46-.24.27-.1.64-.19,1.09-.28.77-.15,1.54-.24,1.55-.24h0s0,0,0,0c0,0,.08-.08.08-.2,0-.08-.03-.16-.13-.26h0s-.01,0-.01,0Z"/>
      <path class="cls-36" d="m5.36,9.21s-.84.09-1.66.26c-.49.1-.89.2-1.18.31-.28.11-.65.29-.68.59-.02.19.1.37.36.52.21.13.53.25.97.37h.12v-.42c-.82-.23-.98-.4-1.01-.44.02-.03.11-.13.48-.25.27-.1.64-.19,1.1-.28.78-.15,1.54-.24,1.55-.24,0,0,.19-.2-.05-.43Z"/>
      <path class="cls-44" d="m4.43,9.46s-2.47.29-2.47.88c0,0,.29-.43,2.47-.88Z"/>
      <path class="cls-26" d="m3.29,11.28v-.42c-.6-.17-.85-.3-.95-.38,0,0,.2.64.95.8Z"/>
      <path class="cls-44" d="m5.4,9.27c-.33.09-.88.29.02.36.04-.05.12-.19-.02-.36Z"/>
      <path class="cls-8" d="m1.96,10.46s-.23.17.55.49c0,0-.51-.22-.55-.49Z"/>
      <path class="cls-23" d="m5.59,12.57c0,.39-.32.71-.72.71s-.72-.32-.72-.71.32-.71.72-.71.72.32.72.71Z"/>
      <path class="cls-1" d="m5.59,12.57c0-.08-.01-.16-.04-.23-.46.07-.8.38-.8.76,0,.06,0,.12.02.17.03,0,.07,0,.1,0,.4,0,.72-.32.72-.71Z"/>
      <path class="cls-44" d="m5.35,12.46s-.84.09-1.66.26h0c-.49.1-.89.21-1.18.32-.29.11-.67.29-.69.61-.02.2.11.38.37.54.21.13.53.25.98.38h.15v-.45h-.02c-.76-.22-.94-.38-.99-.43.03-.04.14-.12.46-.23.27-.1.64-.19,1.09-.28.77-.15,1.54-.24,1.55-.24h0s0,0,0,0c0,0,.08-.08.08-.2,0-.08-.03-.17-.13-.26h0s-.01,0-.01,0Z"/>
      <path class="cls-20" d="m5.36,12.48s-.84.09-1.66.26c-.49.1-.89.21-1.18.32-.28.11-.65.28-.68.59-.02.19.1.37.36.52.21.13.53.25.97.37h.12v-.42c-.82-.23-.98-.4-1.01-.44.02-.03.11-.13.48-.25.27-.1.64-.19,1.1-.28.78-.16,1.54-.24,1.55-.24,0,0,.19-.19-.05-.43Z"/>
      <path class="cls-44" d="m4.43,12.72s-2.47.28-2.47.88c0,0,.29-.43,2.47-.88Z"/>
      <path class="cls-26" d="m3.29,14.54v-.42c-.6-.17-.85-.3-.95-.38,0,0,.2.64.95.8Z"/>
      <path class="cls-44" d="m5.4,12.54c-.33.09-.88.29.02.36.04-.05.12-.19-.02-.36Z"/>
      <path class="cls-8" d="m1.96,13.73s-.23.17.55.49c0,0-.51-.22-.55-.49Z"/>
      <path class="cls-49" d="m5.59,15.84c0,.39-.32.7-.72.7s-.72-.31-.72-.7.32-.71.72-.71.72.32.72.71Z"/>
      <path class="cls-1" d="m5.59,15.84c0-.08-.01-.16-.04-.23-.46.07-.8.39-.8.76,0,.06,0,.11.02.17.03,0,.07,0,.1,0,.4,0,.72-.31.72-.7Z"/>
      <path class="cls-44" d="m5.35,15.73s-.84.09-1.66.26h0c-.49.1-.89.21-1.18.32-.29.11-.67.29-.69.61-.02.2.11.38.37.53.21.13.53.25.98.38h0s.14,0,.14,0v-.45h-.02c-.76-.22-.94-.37-.99-.43.03-.03.14-.12.46-.24.27-.1.64-.19,1.09-.28.77-.15,1.54-.24,1.55-.24h0s0,0,0,0c0,0,.08-.08.08-.2,0-.07-.03-.16-.13-.26h0s-.01,0-.01,0Z"/>
      <path class="cls-50" d="m5.36,15.74s-.84.09-1.66.26c-.49.1-.89.21-1.18.32-.28.11-.65.29-.68.59-.02.19.1.37.36.52.21.13.53.25.97.37h.12v-.42c-.82-.23-.98-.4-1.01-.44.02-.03.11-.12.48-.25.27-.1.64-.19,1.1-.28.78-.15,1.54-.24,1.55-.24,0,0,.19-.19-.05-.43Z"/>
      <path class="cls-44" d="m4.43,15.99s-2.47.29-2.47.88c0,0,.29-.43,2.47-.88Z"/>
      <path class="cls-26" d="m3.29,17.81v-.42c-.6-.17-.85-.31-.95-.38,0,0,.2.64.95.8Z"/>
      <path class="cls-44" d="m5.4,15.8c-.33.09-.88.29.02.36.04-.05.12-.19-.02-.36Z"/>
      <path class="cls-8" d="m1.96,16.99s-.23.17.55.49c0,0-.51-.22-.55-.49Z"/>
      <path class="cls-14" d="m5.59,19.1c0,.39-.32.71-.72.71s-.72-.32-.72-.71.32-.7.72-.7.72.32.72.7Z"/>
      <path class="cls-1" d="m5.59,19.1c0-.08-.01-.16-.04-.23-.46.07-.8.38-.8.76,0,.06,0,.11.02.17.03,0,.07,0,.1,0,.4,0,.72-.32.72-.71Z"/>
      <path class="cls-44" d="m5.35,18.99s-.84.09-1.66.26h0c-.49.1-.89.21-1.18.32-.29.11-.67.29-.69.61-.02.2.11.38.37.54.21.13.53.25.98.37h0s.14,0,.14,0v-.45h-.02c-.76-.22-.94-.38-.99-.43.03-.04.14-.12.46-.24.27-.1.64-.19,1.09-.28.77-.15,1.54-.24,1.55-.24h0s0,0,0,0c0,0,.08-.08.08-.2,0-.08-.03-.16-.13-.26h0s-.01,0-.01,0Z"/>
      <path class="cls-11" d="m5.36,19.01s-.84.09-1.66.26c-.49.1-.89.21-1.18.32-.28.11-.65.28-.68.59-.02.19.1.37.36.52.21.13.53.25.97.37h.12v-.42c-.82-.23-.98-.4-1.01-.44.02-.03.11-.13.48-.25.27-.1.64-.19,1.1-.28.78-.16,1.54-.24,1.55-.24,0,0,.19-.19-.05-.43Z"/>
      <path class="cls-44" d="m4.43,19.25s-2.47.29-2.47.88c0,0,.29-.43,2.47-.88Z"/>
      <path class="cls-26" d="m3.29,21.07v-.42c-.6-.17-.85-.3-.95-.38,0,0,.2.64.95.8Z"/>
      <path class="cls-44" d="m5.4,19.07c-.33.09-.88.29.02.36.04-.05.12-.19-.02-.36Z"/>
      <path class="cls-8" d="m1.96,20.26s-.23.17.55.49c0,0-.51-.22-.55-.49Z"/>
      <path class="cls-27" d="m5.59,22.36c0,.39-.32.7-.72.7s-.72-.32-.72-.7.32-.71.72-.71.72.32.72.71Z"/>
      <path class="cls-1" d="m5.59,22.36c0-.08-.01-.16-.04-.23-.46.07-.8.39-.8.76,0,.06,0,.11.02.17.03,0,.07,0,.1,0,.4,0,.72-.32.72-.7Z"/>
      <path class="cls-44" d="m5.35,22.25s-.84.1-1.66.26h0c-.49.1-.89.21-1.18.32-.29.11-.67.29-.69.61-.02.2.11.38.37.53.21.13.53.25.98.38h0s.14,0,.14,0v-.45h-.02c-.76-.22-.94-.38-.99-.43.03-.04.14-.12.46-.24.27-.1.64-.19,1.09-.28.77-.15,1.54-.24,1.55-.24h0s0,0,0,0c0,0,.08-.08.08-.2,0-.07-.03-.16-.13-.26h0s-.01,0-.01,0Z"/>
      <path class="cls-6" d="m5.36,22.27s-.84.09-1.66.26c-.49.1-.89.21-1.18.32-.28.11-.65.29-.68.59-.02.19.1.37.36.52.21.13.53.25.97.37h.12v-.42c-.82-.23-.98-.4-1.01-.44.02-.03.11-.13.48-.25.27-.1.64-.19,1.1-.28.78-.15,1.54-.24,1.55-.24,0,0,.19-.19-.05-.43Z"/>
      <path class="cls-44" d="m4.43,22.52s-2.47.28-2.47.88c0,0,.29-.43,2.47-.88Z"/>
      <path class="cls-26" d="m3.29,24.33v-.42c-.6-.17-.85-.3-.95-.38,0,0,.2.64.95.8Z"/>
      <path class="cls-44" d="m5.4,22.33c-.33.09-.88.29.02.36.04-.05.12-.19-.02-.36Z"/>
      <path class="cls-8" d="m1.96,23.52s-.23.17.55.49c0,0-.51-.22-.55-.49Z"/>
      <path class="cls-12" d="m5.59,25.63c0,.39-.32.71-.72.71s-.72-.32-.72-.71.32-.71.72-.71.72.32.72.71Z"/>
      <path class="cls-1" d="m5.59,25.63c0-.08-.01-.16-.04-.23-.46.07-.8.39-.8.76,0,.06,0,.12.02.17.03,0,.07,0,.1,0,.4,0,.72-.32.72-.71Z"/>
      <path class="cls-44" d="m5.35,25.52s-.84.09-1.66.26h0c-.49.1-.89.21-1.18.32-.29.11-.67.29-.69.61-.02.2.11.38.37.54.21.13.53.25.98.38h.15v-.45h-.02c-.76-.22-.94-.38-.99-.43.03-.04.14-.12.46-.24.27-.1.64-.19,1.09-.28.77-.15,1.54-.24,1.55-.24h.01s.08-.09.08-.2c0-.07-.03-.17-.13-.26h0s-.01,0-.01,0Z"/>
      <path class="cls-43" d="m5.36,25.54s-.84.09-1.66.26c-.49.1-.89.21-1.18.32-.28.11-.65.28-.68.59-.02.19.1.37.36.52.21.13.53.25.97.37h.12v-.42c-.82-.23-.98-.4-1.01-.44.02-.03.11-.13.48-.26.27-.1.64-.19,1.1-.28.78-.16,1.54-.24,1.55-.24,0,0,.19-.19-.05-.43Z"/>
      <path class="cls-44" d="m4.43,25.78s-2.47.29-2.47.88c0,0,.29-.43,2.47-.88Z"/>
      <path class="cls-26" d="m3.29,27.6v-.42c-.6-.17-.85-.3-.95-.38,0,0,.2.64.95.8Z"/>
      <path class="cls-44" d="m5.4,25.59c-.33.09-.88.29.02.36.04-.05.12-.19-.02-.36Z"/>
      <path class="cls-8" d="m1.96,26.78s-.23.17.55.49c0,0-.51-.22-.55-.49Z"/>
      <path class="cls-16" d="m5.59,28.89c0,.39-.32.7-.72.7s-.72-.32-.72-.7.32-.7.72-.7.72.32.72.7Z"/>
      <path class="cls-1" d="m5.59,28.89c0-.08-.01-.16-.04-.23-.46.07-.8.39-.8.76,0,.06,0,.11.02.17.03,0,.07,0,.1,0,.4,0,.72-.32.72-.7Z"/>
      <path class="cls-44" d="m5.35,28.78s-.84.09-1.66.26h0c-.49.1-.89.21-1.18.32-.29.11-.67.29-.69.61-.02.2.11.38.37.54.21.13.53.25.98.38h0s.14,0,.14,0v-.45h-.02c-.76-.22-.94-.38-.99-.42.03-.04.14-.12.46-.24.27-.1.64-.19,1.09-.28.77-.16,1.54-.24,1.55-.24h0s0,0,0,0c0,0,.08-.08.08-.2,0-.07-.03-.16-.13-.26h0s-.01,0-.01,0Z"/>
      <path class="cls-28" d="m5.36,28.8s-.84.09-1.66.26c-.49.1-.89.21-1.18.32-.28.11-.65.29-.68.59-.02.19.1.37.36.52.21.13.53.25.97.37h.12v-.41c-.82-.23-.98-.4-1.01-.44.02-.03.11-.13.48-.25.27-.1.64-.19,1.1-.28.78-.15,1.54-.24,1.55-.24,0,0,.19-.19-.05-.43Z"/>
      <path class="cls-44" d="m4.43,29.05s-2.47.29-2.47.88c0,0,.29-.43,2.47-.88Z"/>
      <path class="cls-26" d="m3.29,30.86v-.41c-.6-.17-.85-.31-.95-.38,0,0,.2.65.95.8Z"/>
      <path class="cls-44" d="m5.4,28.86c-.33.09-.88.29.02.36.04-.05.12-.19-.02-.36Z"/>
      <path class="cls-8" d="m1.96,30.05s-.23.17.55.49c0,0-.51-.22-.55-.49Z"/>
      <path class="cls-37" d="m5.59,32.16c0,.39-.32.7-.72.7s-.72-.32-.72-.7.32-.7.72-.7.72.32.72.7Z"/>
      <path class="cls-1" d="m5.59,32.16c0-.08-.01-.16-.04-.23-.46.07-.8.39-.8.76,0,.06,0,.12.02.17.03,0,.07,0,.1,0,.4,0,.72-.32.72-.7Z"/>
      <path class="cls-44" d="m5.35,32.05s-.84.09-1.66.26h0c-.49.1-.89.21-1.18.32-.29.11-.67.29-.69.61-.02.2.11.38.37.54.21.13.53.25.98.37h0s.14,0,.14,0v-.45h-.02c-.76-.22-.94-.38-.99-.43.03-.04.14-.12.46-.24.27-.1.64-.19,1.09-.28.77-.15,1.54-.24,1.55-.24h0s0,0,0,0c0,0,.08-.08.08-.2,0-.07-.03-.16-.13-.26h0s-.01,0-.01,0Z"/>
      <path class="cls-42" d="m5.36,32.07s-.84.1-1.66.26c-.49.1-.89.21-1.18.32-.28.11-.65.28-.68.59-.02.19.1.37.36.52.21.13.53.25.97.38h.12v-.42c-.82-.23-.98-.4-1.01-.44.02-.03.11-.13.48-.25.27-.1.64-.19,1.1-.28.78-.16,1.54-.24,1.55-.24,0,0,.19-.19-.05-.43Z"/>
      <path class="cls-44" d="m4.43,32.31s-2.47.29-2.47.88c0,0,.29-.43,2.47-.88Z"/>
      <path class="cls-26" d="m3.29,34.13v-.42c-.6-.17-.85-.3-.95-.38,0,0,.2.64.95.8Z"/>
      <path class="cls-44" d="m5.4,32.12c-.33.09-.88.29.02.36.04-.05.12-.19-.02-.36Z"/>
      <path class="cls-8" d="m1.96,33.31s-.23.17.55.49c0,0-.51-.22-.55-.49Z"/>
      <path class="cls-35" d="m5.59,35.42c0,.39-.32.7-.72.7s-.72-.32-.72-.7.32-.71.72-.71.72.32.72.71Z"/>
      <path class="cls-1" d="m5.59,35.42c0-.08-.01-.16-.04-.23-.46.07-.8.38-.8.76,0,.06,0,.11.02.17.03,0,.07,0,.1,0,.4,0,.72-.32.72-.7Z"/>
      <path class="cls-44" d="m5.35,35.31s-.84.09-1.66.26h0c-.49.1-.89.21-1.18.32-.29.11-.67.29-.69.61-.02.2.11.38.37.54.21.13.53.25.98.38h.15v-.45h-.02c-.76-.22-.94-.37-.99-.42.03-.04.14-.12.46-.24.27-.1.64-.19,1.09-.28.77-.15,1.54-.24,1.55-.24h0s0,0,0,0c0,0,.08-.08.08-.2,0-.07-.03-.16-.13-.26h0s-.01,0-.01,0Z"/>
      <path class="cls-29" d="m5.36,35.33s-.84.09-1.66.26c-.49.1-.89.2-1.18.31-.28.11-.65.29-.68.59-.02.19.1.36.36.52.21.13.53.25.97.37h.12v-.41c-.82-.23-.98-.4-1.01-.44.02-.03.11-.13.48-.25.27-.1.64-.19,1.1-.28.78-.15,1.54-.24,1.55-.24,0,0,.19-.19-.05-.43Z"/>
      <path class="cls-44" d="m4.43,35.57s-2.47.29-2.47.88c0,0,.29-.43,2.47-.88Z"/>
      <path class="cls-26" d="m3.29,37.39v-.41c-.6-.17-.85-.31-.95-.38,0,0,.2.64.95.8Z"/>
      <path class="cls-44" d="m5.4,35.39c-.33.09-.88.29.02.36.04-.05.12-.19-.02-.36Z"/>
      <path class="cls-8" d="m1.96,36.58s-.23.17.55.49c0,0-.51-.22-.55-.49Z"/>
      <path class="cls-51" d="m5.59,38.69c0,.39-.32.71-.72.71s-.72-.31-.72-.71.32-.7.72-.7.72.32.72.7Z"/>
      <path class="cls-1" d="m5.59,38.69c0-.08-.01-.16-.04-.23-.46.07-.8.39-.8.76,0,.06,0,.12.02.17.03,0,.07,0,.1,0,.4,0,.72-.31.72-.71Z"/>
      <path class="cls-44" d="m5.35,38.58s-.84.09-1.66.26h0c-.49.1-.89.21-1.18.32-.29.11-.67.29-.69.61-.02.2.11.38.37.54.21.13.53.25.98.37h0s.14,0,.14,0v-.45h-.02c-.76-.22-.94-.38-.99-.43.03-.04.14-.12.46-.24.27-.1.64-.19,1.09-.28.77-.15,1.54-.24,1.55-.24h.01s.08-.09.08-.2c0-.07-.03-.16-.13-.26h0s-.01,0-.01,0Z"/>
      <path class="cls-40" d="m5.36,38.59s-.84.1-1.66.26c-.49.1-.89.21-1.18.32-.28.11-.65.28-.68.59-.02.19.1.37.36.52.21.13.53.25.97.37h.12v-.42c-.82-.23-.98-.4-1.01-.44.02-.03.11-.13.48-.25.27-.1.64-.19,1.1-.28.78-.15,1.54-.24,1.55-.24,0,0,.19-.19-.05-.43Z"/>
      <path class="cls-44" d="m4.43,38.84s-2.47.29-2.47.88c0,0,.29-.43,2.47-.88Z"/>
      <path class="cls-26" d="m3.29,40.66v-.42c-.6-.17-.85-.31-.95-.38,0,0,.2.64.95.8Z"/>
      <path class="cls-44" d="m5.4,38.65c-.33.09-.88.29.02.37.04-.05.12-.19-.02-.37Z"/>
      <path class="cls-8" d="m1.96,39.84s-.23.17.55.49c0,0-.51-.22-.55-.49Z"/>
    </g>
    <path class="cls-46" d="m20.47,42.81l-.8-.85c.3-.07.69-.54.9-.78.32.27.78.32,1.17.11.48-.27.65-.88.38-1.35-.28-.47-.9-.63-1.38-.36-.39.22-.57.65-.49,1.05-.28.12-.55.26-.82.4l-1.13-1.41c.26-.08.63-.54.88-.73.31.35.84.45,1.27.2.48-.27.65-.88.37-1.35-.28-.47-.9-.63-1.38-.36-.31.18-.49.49-.51.81-.23.07-.48.22-.64.38-.08.04-.16.08-.24.12l-.8-.86c.23-.22.56-.76.73-1,.31.34.83.42,1.25.19.48-.27.65-.88.37-1.35-.28-.47-.9-.63-1.38-.36-.38.22-.57.64-.49,1.04-.26.15-.52.33-.77.5l-1.09-1.34c.26-.17.63-.67.81-.89.32.3.81.37,1.21.15.48-.28.65-.88.37-1.35-.28-.47-.9-.63-1.38-.36-.36.2-.54.58-.5.96-.11.02-.22.04-.3.04-.19.09-.39.2-.59.32l-.96-1.13c.25-.16.59-.67.79-.9.31.33.83.42,1.25.18.48-.28.65-.88.37-1.35s-.9-.63-1.38-.36c-.3.17-.48.46-.5.78-.33.12-.64.27-.95.44l-1.29-1.69c.29-.08.57-.18.85-.32.02.1.17-.14.22-.05.28.47.9.63,1.38.36.48-.27.65-.88.37-1.35-.28-.47-.9-.63-1.38-.36-.23.13-.38.33-.46.56-.16-.06-.32-.09-.46-.01-.22.15-.46.27-.72.36l-.75-.77c.17-.25.47-.81.68-1.03h0c.28.47.9.63,1.38.36.48-.27.65-.88.37-1.35-.28-.47-.9-.63-1.38-.36-.33.19-.51.53-.51.87-.3.09-.59.19-.88.29-.03,0-.06,0-.08,0l-.67-.64c.23-.24.54-.83.7-1.12.32.26.78.31,1.16.1.48-.27.65-.88.37-1.35-.28-.47-.9-.63-1.38-.36-.42.24-.6.73-.46,1.17-.27.13-.54.16-.69-.25-.09.03-.17.07-.26.12.25-.39.41-.83.52-1.28.22.04.46,0,.68-.12.48-.28.65-.88.37-1.35-.28-.47-.9-.63-1.38-.36-.48.28-.65.88-.37,1.35.11.18.26.31.43.4-.3.16-.64.3-.91.49l-.35-.6c.11-.71.29-1.42.12-2.08.25.06.52.03.76-.1.48-.27.65-.88.37-1.35-.28-.47-.9-.63-1.38-.36-.48.27-.65.88-.37,1.35.02.03.04.06.06.09-.15.29-.36.5-.61.67l-1.12-1.91c.19-.28.38-.56.51-.89.31.31.81.39,1.22.16.48-.27.65-.88.37-1.35-.28-.47-.9-.63-1.38-.36-.43.24-.61.74-.46,1.18-.24.16-.48.34-.72.51l-1.42-1.91c.25-.15.61-.61.87-.73.02.03.03.07.05.1.28.47.9.63,1.38.36.48-.27.65-.88.37-1.35-.28-.47-.9-.63-1.38-.36-.39.22-.58.67-.48,1.08-.34-.02-.69,0-1.03.02l-.51-.37L23.73,4.37l14.37,27.88-17.64,10.57Z"/>
    <path class="cls-13" d="m20.03,42.49l-.69-1.17c.3-.07.58-.21.78-.46.32.27.78.33,1.16.11.48-.27.65-.88.37-1.35-.28-.47-.89-.64-1.37-.36-.38.22-.57.65-.48,1.05-.28.12-.55.26-.82.39l-1.02-1.73c.26-.08.52-.21.77-.41.31.35.84.45,1.26.21.48-.27.65-.88.37-1.35-.28-.47-.89-.63-1.37-.36-.31.18-.49.48-.5.81-.23.07-.48.22-.64.38-.08.04-.16.08-.24.12l-.7-1.18c.23-.21.45-.44.62-.68.31.34.83.43,1.25.19.48-.27.65-.88.37-1.35-.28-.47-.89-.63-1.37-.36-.38.22-.56.64-.49,1.04-.26.15-.51.33-.76.5l-.98-1.67c.26-.17.51-.35.7-.57.31.3.81.38,1.2.15.48-.27.65-.88.37-1.35-.28-.47-.89-.64-1.37-.36-.35.2-.54.58-.5.95-.11.02-.22.04-.3.04-.19.08-.38.2-.58.32l-.85-1.45c.24-.15.48-.35.68-.58.31.33.83.42,1.24.19.48-.27.64-.88.37-1.35-.28-.47-.89-.63-1.38-.36-.3.17-.47.46-.5.77-.33.12-.64.27-.94.43l-1.18-2.01c.29-.08.57-.19.85-.32.02.09.06.19.11.28.28.47.89.64,1.38.36.48-.27.65-.88.37-1.35-.28-.47-.89-.64-1.37-.36-.23.13-.38.33-.45.55-.16-.06-.32-.09-.46-.01-.22.15-.46.27-.71.36l-.64-1.09c.17-.25.36-.49.57-.71h0c.28.47.89.64,1.37.36.48-.27.65-.88.37-1.35-.28-.47-.89-.64-1.37-.36-.33.19-.51.52-.5.87-.3.08-.59.19-.88.29-.03,0-.05,0-.08,0l-.56-.96c.23-.24.43-.5.59-.8.32.26.77.32,1.15.1.48-.27.65-.88.37-1.35-.28-.47-.89-.63-1.37-.36-.42.24-.6.73-.45,1.17-.27.13-.54.15-.69-.25-.09.03-.17.07-.26.11.24-.39.41-.82.51-1.28.22.04.46,0,.67-.12.48-.27.65-.88.37-1.35-.28-.47-.89-.63-1.37-.36-.48.27-.65.88-.37,1.35.11.18.26.31.43.4-.29.16-.64.29-.9.49l-.35-.6c.11-.71.28-1.42.11-2.08.25.06.52.04.76-.1.48-.27.65-.88.37-1.35-.28-.47-.89-.63-1.37-.36-.48.27-.65.88-.37,1.35.02.03.04.06.06.09-.15.29-.36.5-.6.67l-1.12-1.91c.19-.28.37-.56.51-.89.31.31.81.39,1.22.16.48-.27.65-.88.37-1.35-.28-.47-.89-.63-1.38-.36-.42.24-.6.74-.45,1.17-.24.16-.47.34-.71.51l-1.31-2.23c.24-.15.5-.28.76-.4.02.03.03.07.05.1.28.47.89.63,1.38.36.48-.27.65-.88.37-1.35-.28-.47-.89-.64-1.37-.36-.39.22-.57.66-.48,1.07-.34-.02-.69,0-1.03.02l-.41-.69L23.73,4.37l15.88,27.02-19.58,11.11Z"/>
  </g>
</svg>