<?xml version="1.0" encoding="UTF-8"?>
<svg id="Layer_1" data-name="Layer 1" xmlns="http://www.w3.org/2000/svg" viewBox="0 0 43.73 47.96">
  <defs>
    <style>
      .cls-1 {
        fill: #fff;
      }

      .cls-2 {
        fill: #5cbfab;
      }

      .cls-3 {
        fill: #97d5c9;
      }

      .cls-4 {
        fill: #5a6e7f;
      }
    </style>
  </defs>
  <path class="cls-3" d="m1.25,0c-.33,0-.65.12-.88.32-.23.2-.37.48-.37.77v32.54c0,.29.13.57.37.77.23.2.55.32.88.32h12.85V14.7c0-.19.09-.38.24-.51.15-.14.37-.21.59-.21h15.53V1.09c0-.29-.13-.57-.37-.77-.23-.2-.55-.32-.88-.32H1.25Zm12.17,27.59H3.6v-2.18h9.82v2.18Zm0-4.93H3.43v-2.18h9.99v2.18Zm0-4.93H3.6v-2.18h9.82v2.18Zm13.44-4.93H3.6v-2.18h23.26v2.18Zm0-4.93H5.96v-2.18h20.9v2.18Z"/>
  <rect class="cls-4" x="5.96" y="5.71" width="20.9" height="2.18"/>
  <rect class="cls-4" x="3.6" y="10.63" width="23.26" height="2.18"/>
  <rect class="cls-4" x="3.6" y="15.56" width="9.82" height="2.18"/>
  <rect class="cls-4" x="3.43" y="20.48" width="9.99" height="2.18"/>
  <rect class="cls-4" x="3.6" y="25.41" width="9.82" height="2.18"/>
  <path class="cls-1" d="m15.77,46.51h26.3V15.43H15.77v31.09Zm3.88-27.19h20.9v2.18h-20.9v-2.18Zm-2.36,4.93h23.26v2.18h-23.26v-2.18Zm0,4.93h23.26v2.18h-23.26v-2.18Zm0,4.93h23.26v2.18h-23.26v-2.18Zm0,4.93h17.48v2.18h-17.48v-2.18Z"/>
  <path class="cls-4" d="m30.46,13.97h-15.53c-.22,0-.44.08-.59.21-.15.13-.24.32-.24.51v32.54c0,.19.09.38.24.51.15.14.37.21.59.21h27.96c.22,0,.43-.08.59-.21.16-.13.24-.32.24-.51V14.7c0-.19-.09-.38-.24-.51-.16-.14-.37-.21-.59-.21h-12.43Zm11.6,32.54H15.77V15.43h26.3v31.09Z"/>
  <rect class="cls-2" x="19.64" y="19.32" width="20.9" height="2.18"/>
  <rect class="cls-2" x="17.28" y="24.24" width="23.26" height="2.18"/>
  <rect class="cls-2" x="17.28" y="29.17" width="23.26" height="2.18"/>
  <rect class="cls-2" x="17.28" y="34.1" width="23.26" height="2.18"/>
  <rect class="cls-2" x="17.28" y="39.02" width="17.48" height="2.18"/>
</svg>